<?xml version="1.0" standalone="no"?>
<!DOCTYPE svg PUBLIC "-//W3C//DTD SVG 20010904//EN"
 "http://www.w3.org/TR/2001/REC-SVG-20010904/DTD/svg10.dtd">
<svg version="1.0" xmlns="http://www.w3.org/2000/svg"
 width="625.000000pt" height="319.000000pt" viewBox="0 0 625.000000 319.000000"
 preserveAspectRatio="xMidYMid meet">

<g transform="translate(0.000000,319.000000) scale(0.100000,-0.100000)"
fill="#000000" stroke="none">
<path d="M1659 2560 c-78 -27 -211 -99 -242 -129 -46 -45 -51 -147 -11 -192
25 -28 52 -37 113 -40 28 -2 51 -5 51 -8 0 -3 -8 -20 -18 -36 -27 -44 -58
-133 -67 -190 -6 -41 -16 -59 -60 -107 -72 -78 -99 -149 -90 -238 10 -106 57
-190 143 -256 25 -19 43 -34 41 -34 -2 0 -36 -13 -74 -29 -99 -40 -202 -61
-287 -59 -216 5 -254 3 -300 -15 -49 -19 -102 -70 -120 -116 -23 -58 -2 -132
42 -146 11 -4 29 -24 40 -45 22 -43 54 -70 85 -70 11 0 38 -12 60 -27 74 -52
186 -31 284 53 22 20 55 37 73 40 190 25 333 46 346 51 10 3 -4 -14 -29 -39
-43 -42 -89 -131 -89 -173 0 -57 59 -125 109 -125 12 0 21 -4 21 -10 0 -17 58
-40 104 -40 25 0 48 -4 51 -10 3 -5 29 -10 56 -10 71 0 135 36 189 105 24 31
60 64 79 74 108 54 441 162 558 182 95 15 124 17 444 29 156 5 316 15 354 20
168 24 161 24 194 1 88 -63 242 -101 408 -102 71 0 139 5 170 14 l51 14 5 -26
c9 -41 49 -95 87 -113 39 -20 116 -23 171 -8 48 14 127 84 150 135 35 75 17
168 -46 251 -37 49 -84 72 -186 94 -129 27 -209 69 -260 133 -43 54 -84 126
-76 134 3 2 43 13 89 23 88 20 192 59 274 105 208 115 345 329 346 540 0 112
-27 183 -92 234 -80 63 -127 41 -145 -69 -20 -122 -104 -273 -211 -377 -77
-75 -188 -132 -320 -164 l-91 -22 -39 31 c-74 59 -178 96 -359 127 -94 15
-215 16 -380 0 -237 -22 -389 -34 -396 -29 -3 2 -9 27 -12 56 -3 29 -9 68 -13
85 l-6 33 41 -14 c161 -58 281 -6 290 125 7 103 -110 258 -244 320 -92 44
-193 46 -276 8 -55 -26 -115 -77 -154 -132 -20 -27 -21 -27 -55 -14 -64 27
-179 45 -287 46 -60 1 -63 2 -79 34 -35 69 -84 106 -176 133 -68 21 -143 15
-229 -16z m222 -45 c62 -22 106 -60 134 -114 l24 -48 128 -5 c110 -5 141 -10
223 -38 l94 -32 16 23 c8 13 41 49 72 80 100 99 191 117 316 63 103 -45 212
-179 212 -260 0 -20 -9 -44 -24 -61 -22 -25 -31 -28 -88 -28 -78 0 -148 31
-228 99 -93 79 -131 47 -59 -50 23 -31 50 -82 61 -113 40 -110 33 -305 -13
-410 -17 -39 -18 -47 -5 -59 8 -8 21 -12 29 -9 23 9 59 97 73 182 8 44 16 85
18 91 2 6 26 11 53 12 26 1 102 8 168 14 66 7 219 13 340 13 198 0 228 -2 303
-23 101 -27 213 -82 240 -117 21 -26 50 -32 80 -16 9 5 51 17 92 26 140 31
253 90 353 184 48 45 138 171 164 231 25 55 68 180 68 197 1 44 80 -33 99 -96
60 -198 -103 -476 -349 -595 -126 -61 -186 -81 -305 -99 -94 -15 -94 -19 -16
-150 87 -146 166 -203 319 -233 122 -23 129 -26 173 -70 65 -64 81 -152 39
-208 -14 -19 -16 -19 -34 -2 -13 11 -27 15 -40 11 -26 -8 -27 -23 -1 -50 l21
-22 -30 -13 c-28 -11 -33 -10 -62 14 -36 30 -69 34 -69 8 0 -10 5 -23 12 -30
9 -9 8 -12 -5 -12 -29 0 -64 44 -72 87 -3 23 -12 49 -20 59 -12 17 -17 18 -72
5 -94 -23 -272 -26 -360 -6 -96 21 -186 62 -241 109 -50 41 -62 44 -69 17 -8
-33 -197 -53 -648 -70 -252 -10 -264 -11 -395 -46 -174 -47 -324 -98 -425
-146 -61 -28 -91 -50 -124 -89 -63 -75 -146 -122 -180 -101 -11 7 -11 17 2 61
16 55 14 80 -8 80 -19 0 -35 -24 -50 -72 -10 -35 -17 -44 -39 -46 -40 -5 -55
12 -46 51 4 18 12 43 19 56 15 27 8 51 -14 51 -20 0 -55 -58 -55 -92 0 -21 -5
-28 -19 -28 -23 0 -36 16 -45 53 -9 38 28 119 72 158 19 17 116 70 216 118 99
48 213 110 251 136 39 27 85 59 103 71 18 12 46 25 62 29 21 5 30 13 30 27 0
18 -4 19 -67 11 -38 -4 -144 -8 -238 -7 -151 1 -181 4 -275 29 -253 66 -374
178 -374 345 0 79 28 136 98 197 38 33 45 44 49 88 3 28 10 64 15 81 17 54 76
165 108 203 40 46 115 87 177 96 26 4 50 11 53 17 12 19 -19 38 -61 38 -50 0
-98 -18 -169 -65 -94 -63 -201 -66 -226 -6 -26 63 9 103 142 166 135 64 218
78 299 50z m-241 -1235 c43 -17 120 -36 230 -57 14 -2 79 -8 145 -11 l120 -7
-67 -43 c-37 -23 -93 -53 -124 -67 -81 -36 -324 -84 -583 -115 -94 -12 -111
-19 -161 -65 -61 -56 -163 -83 -190 -50 -16 19 -7 51 25 100 28 41 27 65 -3
65 -25 0 -47 -25 -72 -83 -24 -53 -49 -61 -74 -25 -29 41 -22 67 38 152 14 20
16 30 8 38 -18 18 -60 -10 -89 -59 -14 -24 -28 -43 -33 -43 -19 0 -32 32 -27
66 13 79 89 120 212 113 159 -8 279 -3 340 15 66 18 211 72 235 86 8 5 16 9
17 9 1 1 25 -8 53 -19z"/>
<path d="M1742 2020 c-24 -23 -30 -78 -10 -98 21 -21 65 -14 87 14 26 33 27
58 1 84 -26 26 -50 25 -78 0z"/>
<path d="M2302 2004 c-45 -31 -19 -114 37 -114 28 0 71 42 71 70 0 27 -34 60
-63 60 -12 0 -33 -7 -45 -16z"/>
<path d="M1805 1797 c-76 -36 -90 -100 -32 -154 20 -18 46 -33 58 -33 16 0 19
-4 14 -17 -4 -10 -11 -33 -15 -51 -8 -33 -30 -57 -61 -65 -25 -7 -74 21 -90
49 -20 38 -48 50 -67 30 -15 -15 -15 -19 1 -49 20 -37 69 -73 118 -87 34 -10
57 -7 96 12 19 9 33 6 80 -18 51 -25 68 -29 143 -28 72 0 93 4 136 27 92 47
139 130 98 172 -23 23 -36 15 -51 -32 -10 -28 -27 -50 -55 -69 -36 -25 -52
-29 -122 -32 -63 -2 -89 1 -115 15 -49 25 -57 43 -43 90 10 32 20 42 64 63 65
31 92 75 76 121 -6 16 -22 36 -37 43 -41 22 -160 29 -196 13z"/>
<path d="M5000 2267 c0 -13 5 -28 11 -34 8 -8 10 -44 6 -110 -6 -121 -8 -130
-48 -199 -17 -30 -29 -57 -26 -60 10 -10 56 16 75 43 69 97 83 301 25 366 -22
24 -43 21 -43 -6z"/>
</g>
</svg>
